<?xml version="1.0" encoding="UTF-8"?><svg xmlns="http://www.w3.org/2000/svg" viewBox="0 0 166.22 48"><defs><style>.cls-1{fill:hsl(171, 100%, 41%);}</style></defs><g><path class="cls-1" d="M79.55,34.7c-.3,2.04-.93,3.85-1.89,5.43s-2.35,2.84-4.17,3.78c-1.82,.94-4.25,1.41-7.29,1.41s-5.66-.43-7.5-1.29-3.22-2.06-4.14-3.6c-.92-1.54-1.51-3.34-1.77-5.4-.26-2.06-.39-4.27-.39-6.63,0-2.12,.15-4.2,.45-6.24,.3-2.04,.93-3.86,1.89-5.46,.96-1.6,2.35-2.89,4.17-3.87,1.82-.98,4.25-1.47,7.29-1.47s5.66,.45,7.5,1.35c1.84,.9,3.22,2.13,4.14,3.69,.92,1.56,1.51,3.37,1.77,5.43,.26,2.06,.39,4.27,.39,6.63,0,2.12-.15,4.2-.45,6.24Zm-16.23-1.23c.08,1.3,.24,2.33,.48,3.09,.24,.76,.55,1.28,.93,1.56,.38,.28,.87,.42,1.47,.42s1.1-.14,1.5-.42c.4-.28,.71-.8,.93-1.56s.37-1.79,.45-3.09,.12-2.97,.12-5.01-.04-3.72-.12-5.04c-.08-1.32-.23-2.36-.45-3.12-.22-.76-.53-1.28-.93-1.56-.4-.28-.9-.42-1.5-.42s-1.09,.14-1.47,.42c-.38,.28-.69,.8-.93,1.56-.24,.76-.4,1.8-.48,3.12-.08,1.32-.12,3-.12,5.04s.04,3.71,.12,5.01Z"/><path class="cls-1" d="M93.2,34.52c0,1.76,.3,2.93,.9,3.51,.6,.58,1.28,.87,2.04,.87,.96,0,1.71-.39,2.25-1.17s.81-2.27,.81-4.47h9.72c-.08,4-1.1,7.01-3.06,9.03-1.96,2.02-5.18,3.03-9.66,3.03-2.6,0-4.78-.29-6.54-.87-1.76-.58-3.18-1.54-4.26-2.88-1.08-1.34-1.85-3.09-2.31-5.25s-.69-4.78-.69-7.86,.26-5.76,.78-7.92c.52-2.16,1.34-3.92,2.46-5.28,1.12-1.36,2.55-2.35,4.29-2.97,1.74-.62,3.83-.93,6.27-.93,2.16,0,4.05,.26,5.67,.78,1.62,.52,2.98,1.39,4.08,2.61,1.1,1.22,1.92,2.82,2.46,4.8s.81,4.45,.81,7.41v3.3h-16.02v4.26Zm5.31-15.36c-.42-.8-1.21-1.2-2.37-1.2s-1.89,.4-2.31,1.2c-.42,.8-.63,2.06-.63,3.78v1.44h5.94v-1.44c0-1.72-.21-2.98-.63-3.78Z"/><path class="cls-1" d="M120.86,12.2l3.06,23.34h.12l3-23.34h11.16l-7.92,32.46h-12.72l-7.68-32.46h10.98Z"/><path class="cls-1" d="M155.36,42.92c-.08-.6-.16-1.24-.24-1.92h-.12c-.6,1.44-1.55,2.52-2.85,3.24s-2.79,1.08-4.47,1.08-3.03-.21-4.17-.63-2.07-1.05-2.79-1.89c-.72-.84-1.24-1.84-1.56-3-.32-1.16-.48-2.44-.48-3.84,0-1.52,.15-2.84,.45-3.96,.3-1.12,.79-2.09,1.47-2.91,.68-.82,1.6-1.52,2.76-2.1,1.16-.58,2.6-1.07,4.32-1.47l4.26-1.02c1.16-.28,1.98-.69,2.46-1.23,.48-.54,.72-1.31,.72-2.31,0-2-.92-3-2.76-3-1.04,0-1.8,.29-2.28,.87-.48,.58-.74,1.73-.78,3.45h-9.36c0-2.36,.42-4.25,1.26-5.67,.84-1.42,1.88-2.52,3.12-3.3,1.24-.78,2.58-1.3,4.02-1.56,1.44-.26,2.78-.39,4.02-.39,1.88,0,3.61,.15,5.19,.45,1.58,.3,2.94,.84,4.08,1.62s2.02,1.84,2.64,3.18c.62,1.34,.93,3.07,.93,5.19v15.84c0,1.52,.06,2.86,.18,4.02s.4,2.16,.84,3h-10.44c-.2-.56-.34-1.14-.42-1.74Zm-1.02-6c.52-.88,.78-2.22,.78-4.02v-3.9h-.12c-.32,.44-.81,.71-1.47,.81-.66,.1-1.39,.33-2.19,.69-.84,.4-1.42,.93-1.74,1.59-.32,.66-.48,1.53-.48,2.61s.24,1.94,.72,2.58c.48,.64,1.12,.96,1.92,.96,1.2,0,2.06-.44,2.58-1.32Z"/></g><path class="cls-1" d="M37.5,11.36V29.96c0,5.16-1.18,8.79-3.54,10.89-2.36,2.1-5.84,3.15-10.44,3.15s-8.02-1.16-10.02-3.48c-2-2.32-3-5.72-3-10.2v-.9h10.08v2.1c0,2.04,.27,3.4,.81,4.08,.54,.68,1.23,1.02,2.07,1.02s1.53-.34,2.07-1.02c.54-.68,.81-2.04,.81-4.08V0H8C3.58,0,0,3.58,0,8V40c0,4.42,3.58,8,8,8H40c4.42,0,8-3.58,8-8V11.36h-10.5Z"/></svg>