<?xml version="1.0" encoding="UTF-8"?><svg id="Layer_1" xmlns="http://www.w3.org/2000/svg" viewBox="0 0 639.98 512"><defs><style>.cls-1{fill:#ff355e;}.cls-2{fill:#242124;}</style></defs><path class="cls-2" d="M274.7,304h-101.4C77.61,304,0,381.6,0,477.3c0,19.2,15.52,34.7,34.66,34.7H413.3c19.2,0,34.7-15.5,34.7-34.7,0-95.7-77.6-173.3-173.3-173.3Z"/><circle class="cls-2" cx="224" cy="128" r="128"/><path class="cls-1" d="M632.3,134.4c-9.7-9-24.91-8.45-33.92,1.27l-87.05,93.75-38.39-38.39c-9.38-9.38-24.56-9.38-33.94,0s-9.38,24.56,0,33.94l56,56c4.5,4.53,10.6,7.03,17,7.03h.44c6.53-.12,12.72-2.89,17.16-7.67l104-112c9-9.73,8.4-24.93-1.3-33.93Z"/></svg>